<svg width="32" height="32" viewBox="0 0 32 32" fill="none" xmlns="http://www.w3.org/2000/svg">
<path fill-rule="evenodd" clip-rule="evenodd" d="M8 26C6.89543 26 6 25.1046 6 24L6 8C6 6.89543 6.89543 6 8 6H16C16.5523 6 17 6.44772 17 7C17 7.55228 16.5523 8 16 8H8V24H24V16C24 15.4477 24.4477 15 25 15C25.5523 15 26 15.4477 26 16V24C26 25.1046 25.1046 26 24 26H8Z" fill="#FFFFFF"/>
<path fill-rule="evenodd" clip-rule="evenodd" d="M20 5C20 4.44772 20.4477 4 21 4H27C27.5523 4 28 4.44772 28 5V11C28 11.5523 27.5523 12 27 12C26.4477 12 26 11.5523 26 11V6H21C20.4477 6 20 5.55228 20 5Z" fill="#FFFFFF"/>
<path fill-rule="evenodd" clip-rule="evenodd" d="M26.7071 5.29289C27.0976 5.68342 27.0976 6.31658 26.7071 6.70711L15.7071 17.7071C15.3166 18.0976 14.6834 18.0976 14.2929 17.7071C13.9024 17.3166 13.9024 16.6834 14.2929 16.2929L25.2929 5.29289C25.6834 4.90237 26.3166 4.90237 26.7071 5.29289Z" fill="#FFFFFF"/>
</svg>
